# xmcd
#
# Track frame offsets:
#	150
#	24427
#	49417
#	79382
#	104927
#	128130
#	152757
#	185072
#	212472
#	232842
#	258745
#
# Disc length: 3878 seconds
#
# Revision: 12
# Processed by: cddbd v1.5.2PL0 Copyright (c) Steve Scherf et al.
# Submitted via: audiograbber 1.83.01
#
DISCID=9c0f240b
DTITLE=Tracy Chapman - New Beginning
DYEAR=1995
DGENRE=Rock
TTITLE0=Heaven's here on Earth
TTITLE1=New beginning
TTITLE2=Smoke and ashes
TTITLE3=Cold feet
TTITLE4=At this point in my life
TTITLE5=The promise
TTITLE6=The rape of the world
TTITLE7=Tell it like it is
TTITLE8=Give me one reason
TTITLE9=Remember the tinman
TTITLE10=I'm ready
EXTD=YEAR: 1995
EXTT0=
EXTT1=
EXTT2=
EXTT3=
EXTT4=
EXTT5=
EXTT6=
EXTT7=
EXTT8=
EXTT9=
EXTT10=
PLAYORDER=
